<?xml version="1.0" encoding="UTF-8"?>
<svg width="40px" height="40px" viewBox="0 0 40 40" version="1.1" xmlns="http://www.w3.org/2000/svg" xmlns:xlink="http://www.w3.org/1999/xlink">
    <title>Atom/ Icon/ Functional icon/ Digital components/ Search 24px</title>
    <g id="Atom/-Icon/-Functional-icon/-Digital-components/-Search-24px" stroke="none" stroke-width="1" fill="none" fill-rule="evenodd">
        <path d="M31.7745773,30.7226049 L23.9148403,22.8628679 C25.2523482,21.2849092 26.0488416,19.2561052 26.0488416,17.0319349 C26.0488416,12.0425798 22.0062617,8 17.0169067,8 C12.0275517,8 8,12.057608 8,17.0469631 C8,22.0363181 12.0425798,26.0788979 17.0319349,26.0788979 C19.2561052,26.0788979 21.2849092,25.2673763 22.8628679,23.9448967 L30.7226049,31.8046337 C30.8728867,31.9549155 31.068253,32.0300564 31.2485911,32.0300564 C31.4289292,32.0300564 31.6393237,31.9549155 31.7745773,31.8046337 C32.0751409,31.5040701 32.0751409,31.0381966 31.7745773,30.7376331 L31.7745773,30.7226049 Z M9.50281778,17.0469631 C9.50281778,12.899186 12.8841578,9.51784596 17.0319349,9.51784596 C21.179712,9.51784596 24.561052,12.899186 24.561052,17.0469631 C24.561052,21.1947401 21.179712,24.5760802 17.0319349,24.5760802 C12.8841578,24.5760802 9.50281778,21.179712 9.50281778,17.0469631 Z" id="Shape" fill="#4E4C4A" fill-rule="nonzero"></path>
    </g>
</svg>