<?xml version="1.0" encoding="UTF-8"?>
<svg id="Layer_2" data-name="Layer 2" xmlns="http://www.w3.org/2000/svg" xmlns:xlink="http://www.w3.org/1999/xlink" viewBox="0 0 16 16">
  <defs>
    <style>
      .cls-1 {
        fill: none;
      }

      .cls-2 {
        clip-path: url(#clippath);
      }

      .cls-3 {
        fill: #f89939;
      }

      .cls-4 {
        fill: #fff;
      }

      .cls-5 {
        fill: #1e8943;
      }

      .cls-6 {
        fill: #21205f;
      }
    </style>
    <clipPath id="clippath">
      <circle class="cls-1" cx="8" cy="8" r="8"/>
    </clipPath>
  </defs>
  <g id="Layer_1-2" data-name="Layer 1">
    <g class="cls-2">
      <g id="FLAG">
        <g>
          <rect class="cls-5" x="-4.23" y="10.67" width="24.46" height="5.44"/>
          <rect class="cls-4" x="-4.23" y="5.25" width="24.46" height="5.44"/>
          <rect class="cls-3" x="-4.23" y="-.19" width="24.46" height="5.44"/>
          <polygon class="cls-6" points="10.05 7.2 9.91 7.13 9.99 7.01 10.12 7.08 10.05 7.2"/>
          <polygon class="cls-6" points="10.16 7.76 10.06 7.66 10.16 7.56 10.27 7.66 10.16 7.76"/>
          <polygon class="cls-6" points="10.15 8.33 10.08 8.19 10.19 8.12 10.27 8.25 10.15 8.33"/>
          <polygon class="cls-6" points="9.97 8.88 9.94 8.73 10.08 8.7 10.12 8.83 9.97 8.88"/>
          <polygon class="cls-6" points="10.05 7.2 9.91 7.13 9.99 7.01 10.12 7.08 10.05 7.2"/>
          <polygon class="cls-6" points="10.16 7.76 10.06 7.66 10.16 7.56 10.27 7.66 10.16 7.76"/>
          <polygon class="cls-6" points="10.15 8.33 10.08 8.19 10.19 8.12 10.27 8.25 10.15 8.33"/>
          <polygon class="cls-6" points="9.97 8.88 9.94 8.73 10.08 8.7 10.12 8.83 9.97 8.88"/>
          <polygon class="cls-6" points="7.81 5.79 7.69 5.9 7.58 5.79 7.69 5.69 7.81 5.79"/>
          <polygon class="cls-6" points="8.37 5.81 8.24 5.88 8.16 5.76 8.3 5.69 8.37 5.81"/>
          <rect class="cls-6" x="8.74" y="5.85" width=".15" height=".15" transform="translate(-1.21 2.42) rotate(-14.66)"/>
          <rect class="cls-6" x="9.25" y="6.13" width=".15" height=".15"/>
          <polygon class="cls-6" points="9.78 6.7 9.63 6.67 9.67 6.52 9.81 6.56 9.78 6.7"/>
          <rect class="cls-6" x="9.67" y="9.2" width=".15" height=".15"/>
          <polygon class="cls-6" points="9.26 9.74 9.29 9.59 9.44 9.63 9.39 9.78 9.26 9.74"/>
          <polygon class="cls-6" points="8.76 10 8.83 9.87 8.95 9.94 8.87 10.08 8.76 10"/>
          <polygon class="cls-6" points="8.19 10.12 8.3 10.02 8.4 10.12 8.3 10.23 8.19 10.12"/>
          <polygon class="cls-6" points="7.63 10.11 7.76 10.03 7.82 10.15 7.7 10.23 7.63 10.11"/>
          <polygon class="cls-6" points="7.08 9.93 7.23 9.9 7.27 10.03 7.13 10.08 7.08 9.93"/>
          <rect class="cls-6" x="6.61" y="9.63" width=".15" height=".15"/>
          <rect class="cls-6" x="6.21" y="9.23" width=".15" height=".15" transform="translate(-4.37 12.85) rotate(-74.38)"/>
          <polygon class="cls-6" points="5.95 8.71 6.09 8.79 6.01 8.91 5.88 8.83 5.95 8.71"/>
          <rect class="cls-6" x="5.76" y="8.18" width=".15" height=".15" transform="translate(-4.14 6.61) rotate(-45.4)"/>
          <polygon class="cls-6" points="5.85 7.59 5.92 7.72 5.81 7.79 5.72 7.66 5.85 7.59"/>
          <polygon class="cls-6" points="6.01 7.05 6.06 7.19 5.92 7.22 5.88 7.08 6.01 7.05"/>
          <rect class="cls-6" x="6.18" y="6.57" width=".15" height=".15" transform="translate(-.03 .03) rotate(-.29)"/>
          <rect class="cls-6" x="6.58" y="6.17" width=".15" height=".15" transform="translate(-1.06 11.12) rotate(-75.49)"/>
          <polygon class="cls-6" points="7.24 5.91 7.17 6.05 7.05 5.97 7.11 5.84 7.24 5.91"/>
          <polygon class="cls-6" points="7.96 7.96 8.01 7.08 7.94 5.78 7.88 7.08 7.96 7.96"/>
          <polygon class="cls-6" points="7.96 7.96 8.24 7.13 8.5 5.85 8.12 7.1 7.96 7.96"/>
          <polygon class="cls-6" points="7.96 7.96 8.44 7.23 9.04 6.06 8.33 7.17 7.96 7.96"/>
          <polygon class="cls-6" points="7.96 7.96 8.61 7.38 9.48 6.42 8.52 7.29 7.96 7.96"/>
          <polygon class="cls-6" points="7.96 7.96 8.74 7.57 9.84 6.86 8.67 7.47 7.96 7.96"/>
          <polygon class="cls-6" points="7.96 7.96 8.8 7.78 10.05 7.38 8.77 7.66 7.96 7.96"/>
          <polygon class="cls-6" points="7.96 7.96 8.82 8.02 10.12 7.94 8.82 7.88 7.96 7.96"/>
          <polygon class="cls-6" points="7.96 7.96 8.77 8.24 10.06 8.51 8.8 8.11 7.96 7.96"/>
          <polygon class="cls-6" points="7.96 7.96 8.68 8.45 9.84 9.02 8.74 8.33 7.96 7.96"/>
          <polygon class="cls-6" points="7.96 7.96 8.52 8.61 9.5 9.48 8.61 8.52 7.96 7.96"/>
          <polygon class="cls-6" points="7.96 7.96 8.33 8.73 9.05 9.83 8.44 8.67 7.96 7.96"/>
          <polygon class="cls-6" points="7.96 7.96 8.12 8.8 8.52 10.05 8.24 8.77 7.96 7.96"/>
          <polygon class="cls-6" points="7.96 7.96 7.9 8.82 7.96 10.12 8.01 8.82 7.96 7.96"/>
          <polygon class="cls-6" points="7.96 7.96 7.67 8.77 7.39 10.05 7.79 8.8 7.96 7.96"/>
          <polygon class="cls-6" points="7.96 7.96 7.47 8.67 6.87 9.84 7.57 8.73 7.96 7.96"/>
          <polygon class="cls-6" points="7.96 7.96 7.3 8.52 6.43 9.5 7.39 8.61 7.96 7.96"/>
          <polygon class="cls-6" points="7.96 7.96 7.17 8.33 6.07 9.04 7.24 8.45 7.96 7.96"/>
          <polygon class="cls-6" points="7.96 7.96 7.1 8.12 5.85 8.52 7.14 8.24 7.96 7.96"/>
          <polygon class="cls-6" points="7.96 7.96 7.08 7.88 5.78 7.96 7.08 8.02 7.96 7.96"/>
          <polygon class="cls-6" points="7.96 7.96 7.13 7.66 5.85 7.39 7.1 7.79 7.96 7.96"/>
          <polygon class="cls-6" points="7.96 7.96 7.23 7.47 6.07 6.88 7.17 7.57 7.96 7.96"/>
          <polygon class="cls-6" points="7.96 7.96 7.38 7.29 6.41 6.42 7.29 7.38 7.96 7.96"/>
          <polygon class="cls-6" points="7.96 7.96 7.57 7.17 6.86 6.08 7.47 7.23 7.96 7.96"/>
          <polygon class="cls-6" points="7.96 7.96 7.79 7.1 7.38 5.85 7.66 7.13 7.96 7.96"/>
          <path class="cls-6" d="m8.64,5.57c-1.32-.36-2.67.43-3.02,1.75s.43,2.67,1.75,3.02c1.32.36,2.67-.43,3.02-1.75.36-1.32-.43-2.67-1.75-3.02Zm-1.2,4.49c-1.17-.31-1.85-1.51-1.54-2.68s1.51-1.85,2.68-1.54,1.85,1.51,1.54,2.68-1.51,1.85-2.68,1.54Z"/>
          <path class="cls-6" d="m8.43,8.08c-.06.24-.31.37-.53.31-.24-.06-.37-.31-.31-.53.06-.24.3-.37.53-.31s.37.31.31.53Z"/>
          <rect class="cls-6" x="8.74" y="5.85" width=".15" height=".15" transform="translate(-1.21 2.42) rotate(-14.66)"/>
          <rect class="cls-6" x="9.25" y="6.13" width=".15" height=".15"/>
          <polygon class="cls-6" points="9.78 6.7 9.63 6.67 9.67 6.52 9.81 6.56 9.78 6.7"/>
          <rect class="cls-6" x="9.67" y="9.2" width=".15" height=".15"/>
          <polygon class="cls-6" points="9.26 9.74 9.29 9.59 9.44 9.63 9.39 9.78 9.26 9.74"/>
          <polygon class="cls-6" points="8.76 10 8.83 9.87 8.95 9.94 8.87 10.08 8.76 10"/>
          <polygon class="cls-6" points="8.19 10.12 8.3 10.02 8.4 10.12 8.3 10.23 8.19 10.12"/>
          <polygon class="cls-6" points="7.63 10.11 7.76 10.03 7.82 10.15 7.7 10.23 7.63 10.11"/>
          <polygon class="cls-6" points="7.08 9.93 7.23 9.9 7.27 10.03 7.13 10.08 7.08 9.93"/>
          <rect class="cls-6" x="6.61" y="9.63" width=".15" height=".15"/>
          <rect class="cls-6" x="6.21" y="9.23" width=".15" height=".15" transform="translate(-4.37 12.85) rotate(-74.38)"/>
          <polygon class="cls-6" points="5.95 8.71 6.09 8.79 6.01 8.91 5.88 8.83 5.95 8.71"/>
          <rect class="cls-6" x="5.76" y="8.18" width=".15" height=".15" transform="translate(-4.14 6.61) rotate(-45.4)"/>
          <polygon class="cls-6" points="5.85 7.59 5.92 7.72 5.81 7.79 5.72 7.66 5.85 7.59"/>
          <polygon class="cls-6" points="6.01 7.05 6.06 7.19 5.92 7.22 5.88 7.08 6.01 7.05"/>
          <rect class="cls-6" x="6.18" y="6.57" width=".15" height=".15" transform="translate(-.03 .03) rotate(-.29)"/>
          <rect class="cls-6" x="6.58" y="6.17" width=".15" height=".15" transform="translate(-1.06 11.12) rotate(-75.49)"/>
          <polygon class="cls-6" points="7.24 5.91 7.17 6.05 7.05 5.97 7.11 5.84 7.24 5.91"/>
          <polygon class="cls-6" points="7.81 5.79 7.69 5.9 7.58 5.79 7.69 5.69 7.81 5.79"/>
        </g>
      </g>
    </g>
  </g>
</svg>