<?xml version="1.0" encoding="UTF-8"?>
<svg width="23px" height="23px" viewBox="0 0 23 23" version="1.1" xmlns="http://www.w3.org/2000/svg" xmlns:xlink="http://www.w3.org/1999/xlink">
    <title>Atom/ Icon/ Social icon/ LinkedIn</title>
    <g id="Atom/-Icon/-Social-icon/-LinkedIn" stroke="none" stroke-width="1" fill="none" fill-rule="evenodd">
        <g id="social-1_round-linkedin" fill="#212121" fill-rule="nonzero">
            <path d="M11.5,0 C5.175,0 0,5.175 0,11.5 C0,17.825 5.175,23 11.5,23 C17.825,23 23,17.825 23,11.5 C23,5.175 17.825,0 11.5,0 Z M8.3375,17.25 L5.965625,17.25 L5.965625,9.559375 L8.3375,9.559375 L8.3375,17.25 L8.3375,17.25 Z M7.115625,8.553125 C6.396875,8.553125 5.75,7.90625 5.75,7.115625 C5.75,6.396875 6.396875,5.75 7.115625,5.75 C7.90625,5.75 8.48125,6.396875 8.48125,7.115625 C8.48125,7.90625 7.90625,8.553125 7.115625,8.553125 Z M17.25,17.25 L14.878125,17.25 L14.878125,13.5125 C14.878125,12.65 14.878125,11.5 13.65625,11.5 C12.434375,11.5 12.21875,12.434375 12.21875,13.440625 L12.21875,17.25 L9.846875,17.25 L9.846875,9.559375 L12.146875,9.559375 L12.146875,10.6375 L12.146875,10.6375 C12.434375,10.0625 13.225,9.415625 14.375,9.415625 C16.81875,9.415625 17.25,10.996875 17.25,13.08125 L17.25,17.25 Z" id="Shape"></path>
        </g>
    </g>
</svg>