<?xml version="1.0" encoding="UTF-8"?>
<svg width="24px" height="24px" viewBox="0 0 24 24" version="1.1" xmlns="http://www.w3.org/2000/svg" xmlns:xlink="http://www.w3.org/1999/xlink">
    <title>Atom/ Icon/ Social icon/ Youtube</title>
    <g id="Atom/-Icon/-Social-icon/-Youtube" stroke="none" stroke-width="1" fill="none" fill-rule="evenodd">
        <g id="social-1_round-youtube" fill="#212121" fill-rule="nonzero">
            <path d="M12,0 C5.4,0 0,5.4 0,12 C0,18.6 5.4,24 12,24 C18.6,24 24,18.6 24,12 C24,5.4 18.6,0 12,0 Z M18,12.45 C18,13.425 17.85,14.4 17.85,14.4 C17.85,14.4 17.7,15.225 17.4,15.6 C16.95,16.05 16.425,16.05 16.2,16.125 C14.55,16.275 12,16.275 12,16.275 C12,16.275 8.85,16.275 7.95,16.125 C7.65,16.05 7.05,16.125 6.6,15.6 C6.225,15.225 6.15,14.4 6.15,14.4 C6.15,14.4 6,13.425 6,12.45 L6,11.55 C6,10.575 6.15,9.6 6.15,9.6 C6.15,9.6 6.3,8.775 6.6,8.4 C7.05,7.95 7.575,7.95 7.8,7.875 C9.45,7.725 12,7.725 12,7.725 L12,7.725 C12,7.725 14.55,7.725 16.2,7.875 C16.425,7.875 16.95,7.875 17.4,8.4 C17.775,8.775 17.85,9.6 17.85,9.6 C17.85,9.6 18,10.575 18,11.55 L18,12.45 Z" id="Shape"></path>
            <polygon id="Path" points="10.725 13.575 14.025 11.85 10.725 10.2"></polygon>
        </g>
    </g>
</svg>