<?xml version="1.0" encoding="UTF-8"?>
<svg width="24px" height="24px" viewBox="0 0 24 24" version="1.1" xmlns="http://www.w3.org/2000/svg" xmlns:xlink="http://www.w3.org/1999/xlink">
    <title>Atom/ Icon/ Social icon/ Twitter</title>
    <g id="Atom/-Icon/-Social-icon/-Twitter" stroke="none" stroke-width="1" fill="none" fill-rule="evenodd">
        <g id="social-1_round-twitter" fill="#212121" fill-rule="nonzero">
            <path d="M12,0 C18.6,0 24,5.4 24,12 C24,18.6 18.6,24 12,24 C5.4,24 0,18.6 0,12 C0,5.4 5.4,0 12,0 Z M9.99644561,6 L6.5,6 L11.0841826,12.6716016 L6.5,18 L7.53589618,18 L11.5440666,13.3408645 L14.7455246,18 L18.2419702,18 L13.4878128,11.081181 L17.8592798,6 L16.8234424,6 L13.027919,10.4119181 L9.99644561,6 Z M9.50022016,6.77980773 L12.4826512,11.0459649 L12.9471244,11.710306 L16.8239316,17.2556569 L15.2328555,17.2556569 L12.0692654,12.7306343 L11.6047922,12.0660388 L7.90914406,6.77980773 L9.50022016,6.77980773 Z" id="Shape"></path>
        </g>
    </g>
</svg>