<?xml version="1.0" encoding="UTF-8"?>
<svg width="24px" height="24px" viewBox="0 0 24 24" version="1.1" xmlns="http://www.w3.org/2000/svg" xmlns:xlink="http://www.w3.org/1999/xlink">
    <title>Atom/ Icon/ Social icon/ Facebook</title>
    <g id="Atom/-Icon/-Social-icon/-Facebook" stroke="none" stroke-width="1" fill="none" fill-rule="evenodd">
        <g id="social-1_round-facebook" fill="#212121" fill-rule="nonzero">
            <path d="M12,0 C5.4,0 0,5.4 0,12 C0,18.6 5.4,24 12,24 C18.6,24 24,18.6 24,12 C24,5.4 18.6,0 12,0 Z M15.15,8.025 L14.025,8.025 C13.125,8.025 12.975,8.475 12.975,9.075 L12.975,10.425 L15.075,10.425 L14.775,12.525 L12.975,12.525 L12.975,18 L10.8,18 L10.8,12.525 L8.925,12.525 L8.925,10.425 L10.8,10.425 L10.8,8.85 C10.725,6.975 11.85,6 13.5,6 C14.25,6 14.925,6.075 15.15,6.075 L15.15,8.025 Z" id="Shape"></path>
        </g>
    </g>
</svg>