<?xml version="1.0" encoding="UTF-8"?>
<svg width="48px" height="48px" viewBox="0 0 48 48" version="1.1" xmlns="http://www.w3.org/2000/svg" xmlns:xlink="http://www.w3.org/1999/xlink">
    <!-- Generator: Sketch 62 (91390) - https://sketch.com -->
    <title>Atom/ Icon/ Rich icon/ Places - Abu Dhabi / Zayed Mosque</title>
    <desc>Created with Sketch.</desc>
    <g id="Atom/-Icon/-Rich-icon/-Places---Abu-Dhabi-/-Zayed-Mosque" stroke="none" stroke-width="1" fill="none" fill-rule="evenodd">
        <g id="PLACE_AD_Zayed-Mosque">
            <rect id="Rectangle" x="0" y="0" width="48" height="48"></rect>
            <g id="Group" transform="translate(0.000000, 6.760000)" fill-rule="nonzero">
                <polygon id="Path" fill="#BD8B13" points="24 40.24 30 34.24 18 34.24"></polygon>
                <path d="M36.9967804,20.218128 L48,20.218128 L48,18.2213445 L43.992273,18.2213445 C43.992273,16.461293 42.84868,13.352898 40.9942048,12.4780187 L40.9942048,10.2342104 L38.9954926,10.2342104 L38.9954926,12.4780187 C37.1410174,13.352898 35.9974243,16.461293 35.9974243,18.2213445 L33.9987122,18.2213445 L33.9987122,17.1920746 C33.9987122,16.6236246 33.5374473,16.1628048 32.9684482,16.1628048 L31.9381842,16.1628048 L31.9381842,10.2342104 C31.9265859,6.29301763 29.0391348,2.94942879 25.1384417,2.36029592 L25.1384417,0.24 L23.1397296,0.24 L23.1397296,2.29853972 C19.0879953,2.72447764 16.0092124,6.13316981 16,10.2033323 L16,16.1936829 L14.969736,16.1936829 C14.4007369,16.1936829 13.939472,16.6545027 13.939472,17.2229527 L13.939472,18.2522226 L12.0025757,18.2522226 C12.0025757,16.4921711 10.8589826,13.3837761 8.99420476,12.5088968 L8.99420476,10.2342104 L6.99549259,10.2342104 L6.99549259,12.4780187 C5.14101739,13.352898 3.99742434,16.461293 3.99742434,18.2213445 L-1.74793513e-12,18.2213445 L-1.74793513e-12,20.218128 L14.0012878,20.218128 L14.0012878,22.2252042 L1.03026401,22.2252042 C0.461264907,22.2252042 -1.74793513e-12,22.6860241 -1.74793513e-12,23.2544741 L-1.74793513e-12,32.24 L48,32.24 L48,23.223596 C48,22.655146 47.5387351,22.1943261 46.969736,22.1943261 L33.9987122,22.1943261 L33.9987122,20.218128 L36.9967804,20.218128 Z M39.9948487,14.2277774 C40.7469414,14.2277774 41.9935608,16.7289032 41.9935608,18.2213445 L37.9961365,18.2213445 C37.9961365,16.7289032 39.242756,14.2277774 39.9948487,14.2277774 L39.9948487,14.2277774 Z M5.99613651,18.2213445 C5.99613651,16.7289032 7.2530586,14.2277774 7.99484868,14.2277774 C8.73663876,14.2277774 10.0553767,16.7289032 10.0553767,18.2213445 L5.99613651,18.2213445 Z M14.0012878,30.2123384 L12.0025757,30.2123384 L12.0025757,28.2155548 L10.0038635,28.2155548 L10.0038635,30.2123384 L7.94333548,30.2123384 L7.94333548,28.2155548 L5.99613651,28.2155548 L5.99613651,30.2123384 L1.99871217,30.2123384 L1.99871217,24.2219878 L14.0012878,24.2219878 L14.0012878,30.2123384 Z M17.9987122,10.2342104 C18.132064,7.01955538 20.7794781,4.48203503 24,4.48203503 C27.2205219,4.48203503 29.867936,7.01955538 30.0012878,10.2342104 L30.0012878,16.224561 L27.992273,16.224561 L27.992273,14.2277774 C27.9875475,12.467902 26.8273667,10.9196974 25.1384417,10.4194789 L25.1384417,8.23742683 L23.1397296,8.23742683 L23.1397296,10.2959665 C21.3093896,10.7043015 20.0052398,12.3233043 19.9974243,14.1968993 L19.9974243,16.1936829 L17.9987122,16.1936829 L17.9987122,10.2342104 Z M25.9935608,14.2277774 L25.9935608,16.224561 L21.9961365,16.224561 L21.9961365,14.2277774 C21.9961365,13.1249843 22.8909904,12.2309939 23.9948487,12.2309939 C25.0987069,12.2309939 25.9935608,13.1249843 25.9935608,14.2277774 L25.9935608,14.2277774 Z M25.9935608,30.2123384 L21.9961365,30.2123384 L21.9961365,28.2155548 C21.9961365,27.1127617 22.8909904,26.2187713 23.9948487,26.2187713 C25.0987069,26.2187713 25.9935608,27.1127617 25.9935608,28.2155548 L25.9935608,30.2123384 Z M32,20.218128 L32,30.2123384 L27.992273,30.2123384 L27.992273,28.2155548 C27.992273,26.0099687 26.2025651,24.2219879 23.9948487,24.2219879 C21.7871322,24.2219879 19.9974244,26.0099687 19.9974243,28.2155548 L19.9974243,30.2123384 L16,30.2123384 L16,18.2213445 L32,18.2213445 L32,20.218128 Z M45.9909852,24.2219878 L45.9909852,30.2123384 L41.9935608,30.2123384 L41.9935608,28.2155548 L39.9948487,28.2155548 L39.9948487,30.2123384 L37.9961365,30.2123384 L37.9961365,28.2155548 L35.9974243,28.2155548 L35.9974243,30.2123384 L33.9987122,30.2123384 L33.9987122,24.2219878 L45.9909852,24.2219878 Z" id="Shape" fill="#4E4C4A"></path>
                <polygon id="Path" fill="#4E4C4A" points="0 34.24 0 36.24 18 36.24 15.9458824 34.24"></polygon>
                <polygon id="Path" fill="#4E4C4A" points="30 36.24 48 36.24 48 34.24 32.0541176 34.24"></polygon>
            </g>
        </g>
    </g>
</svg>